<svg width="574" height="144" viewBox="0 0 574 144" fill="none" xmlns="http://www.w3.org/2000/svg">
<mask id="path-1-outside-1_388_11982" maskUnits="userSpaceOnUse" x="0" y="-0.0600586" width="574" height="144" fill="black">
<rect fill="white" y="-0.0600586" width="574" height="144"/>
<path fill-rule="evenodd" clip-rule="evenodd" d="M280.879 137.924V71.9321V5.93994H292.653H304.333L317.531 23.2213C322.88 30.1677 329.55 38.8926 334.567 45.4556L334.575 45.4662C336.413 47.87 338.028 49.9833 339.275 51.6122C342.658 55.9422 349.126 64.4178 355.691 73.0205C358.34 76.4915 361.004 79.9831 363.488 83.2315L379.155 103.646L379.63 55.0305L380.105 6.41471H389.6H399.095V71.9321V137.449L390.075 137.734C385.137 137.829 380.58 137.639 380.01 137.26C379.535 136.785 363.963 116.37 345.447 91.8722C326.931 67.2794 309.27 43.8261 306.042 39.7431L300.345 32.2418L300.06 85.0356L299.87 137.924H290.375H280.879ZM146.81 8.02916C146.905 14.391 153.361 22.1771 160.008 23.9812C162.382 24.5509 178.334 24.8358 203.876 24.7408L244.136 24.456V15.4355V6.41496L195.52 6.1301L146.81 5.9402V8.02916ZM7.99401 15.4367V24.9319H43.6013C63.1616 24.9319 79.2086 25.2168 79.2086 25.5966C79.2086 26.0714 30.4978 91.209 11.1274 116.561L6 123.113L6.28486 130.329L6.56972 137.451H58.319H110.068L110.353 128.241L110.638 118.935L72.0871 118.745L33.4413 118.46L70.0931 69.7496L106.745 21.0389V13.5376V5.94139H57.3694H7.99401V15.4367ZM489.284 9.92819C488.335 12.2071 485.296 19.1386 482.543 25.4055C478.874 33.811 472.299 49.0595 465.485 64.8614C462.6 71.5511 459.673 78.34 456.905 84.751C453.867 91.7775 447.505 106.495 442.852 117.32C436.775 131.183 434.591 137.26 435.446 137.545C436.111 137.83 440.858 137.83 445.986 137.735L455.386 137.45L459.089 128.904C459.748 127.335 460.574 125.381 461.465 123.27L461.469 123.262C463.274 118.989 465.351 114.072 466.875 110.388C469.154 104.881 474.946 91.2078 479.694 80.0033C484.442 68.7989 491.183 52.8468 494.602 44.5859C498.685 34.7109 501.153 29.9632 501.628 30.8178C502.293 31.9572 526.221 87.9794 540.939 122.732C543.882 129.759 546.826 136.12 547.3 136.69C548.725 138.494 568 138.399 568 136.69C568 135.93 564.772 127.954 560.784 118.839C557.818 112.061 552.647 100.189 547.809 89.0813L547.754 88.9538C546.105 85.1685 544.496 81.4747 543.028 78.1043C528.74 45.0425 526.997 41.0428 522.546 30.8321L522.043 29.6784C519.574 24.1711 516.251 16.5749 514.732 12.7768L511.788 5.94017H501.438H490.993L489.284 9.92819ZM147 99.9446C146.905 79.3399 147 61.8685 147.285 61.2988C147.57 60.3493 157.54 60.0644 192.862 60.0644H237.965V69.5597V79.055H201.883H165.801V98.9951V118.935H205.206H244.706L244.421 128.146L244.137 137.451H195.711H147.285L147 99.9446Z"/>
</mask>
<path fill-rule="evenodd" clip-rule="evenodd" d="M280.879 137.924V71.9321V5.93994H292.653H304.333L317.531 23.2213C322.88 30.1677 329.55 38.8926 334.567 45.4556L334.575 45.4662C336.413 47.87 338.028 49.9833 339.275 51.6122C342.658 55.9422 349.126 64.4178 355.691 73.0205C358.34 76.4915 361.004 79.9831 363.488 83.2315L379.155 103.646L379.63 55.0305L380.105 6.41471H389.6H399.095V71.9321V137.449L390.075 137.734C385.137 137.829 380.58 137.639 380.01 137.26C379.535 136.785 363.963 116.37 345.447 91.8722C326.931 67.2794 309.27 43.8261 306.042 39.7431L300.345 32.2418L300.06 85.0356L299.87 137.924H290.375H280.879ZM146.81 8.02916C146.905 14.391 153.361 22.1771 160.008 23.9812C162.382 24.5509 178.334 24.8358 203.876 24.7408L244.136 24.456V15.4355V6.41496L195.52 6.1301L146.81 5.9402V8.02916ZM7.99401 15.4367V24.9319H43.6013C63.1616 24.9319 79.2086 25.2168 79.2086 25.5966C79.2086 26.0714 30.4978 91.209 11.1274 116.561L6 123.113L6.28486 130.329L6.56972 137.451H58.319H110.068L110.353 128.241L110.638 118.935L72.0871 118.745L33.4413 118.46L70.0931 69.7496L106.745 21.0389V13.5376V5.94139H57.3694H7.99401V15.4367ZM489.284 9.92819C488.335 12.2071 485.296 19.1386 482.543 25.4055C478.874 33.811 472.299 49.0595 465.485 64.8614C462.6 71.5511 459.673 78.34 456.905 84.751C453.867 91.7775 447.505 106.495 442.852 117.32C436.775 131.183 434.591 137.26 435.446 137.545C436.111 137.83 440.858 137.83 445.986 137.735L455.386 137.45L459.089 128.904C459.748 127.335 460.574 125.381 461.465 123.27L461.469 123.262C463.274 118.989 465.351 114.072 466.875 110.388C469.154 104.881 474.946 91.2078 479.694 80.0033C484.442 68.7989 491.183 52.8468 494.602 44.5859C498.685 34.7109 501.153 29.9632 501.628 30.8178C502.293 31.9572 526.221 87.9794 540.939 122.732C543.882 129.759 546.826 136.12 547.3 136.69C548.725 138.494 568 138.399 568 136.69C568 135.93 564.772 127.954 560.784 118.839C557.818 112.061 552.647 100.189 547.809 89.0813L547.754 88.9538C546.105 85.1685 544.496 81.4747 543.028 78.1043C528.74 45.0425 526.997 41.0428 522.546 30.8321L522.043 29.6784C519.574 24.1711 516.251 16.5749 514.732 12.7768L511.788 5.94017H501.438H490.993L489.284 9.92819ZM147 99.9446C146.905 79.3399 147 61.8685 147.285 61.2988C147.57 60.3493 157.54 60.0644 192.862 60.0644H237.965V69.5597V79.055H201.883H165.801V98.9951V118.935H205.206H244.706L244.421 128.146L244.137 137.451H195.711H147.285L147 99.9446Z" fill="url(#paint0_linear_388_11982)"/>
<path d="M280.879 137.924H274.964V143.84H280.879V137.924ZM280.879 5.93994V0.0241523H274.964V5.93994H280.879ZM304.333 5.93994L309.034 2.34927L307.258 0.0241523H304.333V5.93994ZM317.531 23.2213L312.83 26.812L312.837 26.8213L312.844 26.8305L317.531 23.2213ZM334.567 45.4556L329.867 49.0484L329.867 49.0485L334.567 45.4556ZM334.575 45.4662L339.275 41.8734L339.275 41.8733L334.575 45.4662ZM339.275 51.6122L334.578 55.2085L334.596 55.2314L334.613 55.2542L339.275 51.6122ZM355.691 73.0205L360.394 69.4317V69.4317L355.691 73.0205ZM363.488 83.2315L358.789 86.825L358.795 86.8331L363.488 83.2315ZM379.155 103.646L374.462 107.248L384.903 120.853L385.071 103.704L379.155 103.646ZM379.63 55.0305L373.715 54.9727L379.63 55.0305ZM380.105 6.41471V0.498916H374.247L374.189 6.35694L380.105 6.41471ZM399.095 6.41471H405.011V0.498916H399.095V6.41471ZM399.095 137.449L399.282 143.362L405.011 143.181V137.449H399.095ZM390.075 137.734L390.189 143.649L390.225 143.648L390.262 143.647L390.075 137.734ZM380.01 137.26L375.827 141.443L376.241 141.857L376.728 142.182L380.01 137.26ZM345.447 91.8722L340.721 95.4304L340.728 95.4392L345.447 91.8722ZM306.042 39.7431L301.331 43.3212L301.366 43.3671L301.401 43.4123L306.042 39.7431ZM300.345 32.2418L305.056 28.6638L294.523 14.7956L294.429 32.2099L300.345 32.2418ZM300.06 85.0356L294.144 85.0036L294.144 85.0143L300.06 85.0356ZM299.87 137.924V143.84H305.764L305.786 137.945L299.87 137.924ZM160.008 23.9812L158.458 29.6904L158.543 29.7133L158.628 29.7337L160.008 23.9812ZM146.81 8.02916H140.894V8.0733L140.895 8.11745L146.81 8.02916ZM203.876 24.7408L203.898 30.6566L203.908 30.6566L203.918 30.6565L203.876 24.7408ZM244.136 24.456L244.178 30.3716L250.052 30.3301V24.456H244.136ZM244.136 6.41496H250.052V0.533732L244.171 0.499273L244.136 6.41496ZM195.52 6.1301L195.555 0.214403L195.544 0.214358L195.52 6.1301ZM146.81 5.9402L146.833 0.0244527L140.894 0.0012989V5.9402H146.81ZM7.99401 24.9319H2.07822V30.8477H7.99401V24.9319ZM11.1274 116.561L15.7862 120.207L15.8073 120.18L15.8282 120.153L11.1274 116.561ZM6 123.113L1.34129 119.467L0.00317717 121.177L0.0888143 123.346L6 123.113ZM6.28486 130.329L0.373672 130.563L0.373796 130.566L6.28486 130.329ZM6.56972 137.451L0.658654 137.687L0.885828 143.367H6.56972V137.451ZM110.068 137.451V143.367H115.804L115.981 137.634L110.068 137.451ZM110.353 128.241L116.266 128.423L116.266 128.422L110.353 128.241ZM110.638 118.935L116.551 119.116L116.737 113.049L110.667 113.019L110.638 118.935ZM72.0871 118.745L72.0435 124.661L72.0508 124.661L72.058 124.661L72.0871 118.745ZM33.4413 118.46L28.7142 114.904L21.652 124.289L33.3977 124.376L33.4413 118.46ZM70.0931 69.7496L74.8202 73.3065L70.0931 69.7496ZM106.745 21.0389L111.472 24.5957L112.661 23.0159V21.0389H106.745ZM106.745 5.94139H112.661V0.025598H106.745V5.94139ZM7.99401 5.94139V0.025598H2.07822V5.94139H7.99401ZM482.543 25.4055L477.127 23.0257L477.124 23.0323L477.121 23.0388L482.543 25.4055ZM489.284 9.92819L483.847 7.59786L483.835 7.62532L483.824 7.65289L489.284 9.92819ZM465.485 64.8614L460.053 62.519V62.5191L465.485 64.8614ZM456.905 84.751L462.335 87.099L462.337 87.0958L456.905 84.751ZM442.852 117.32L448.27 119.695L448.279 119.675L448.287 119.656L442.852 117.32ZM435.446 137.545L437.776 132.107L437.55 132.01L437.317 131.932L435.446 137.545ZM445.986 137.735L446.095 143.649L446.13 143.649L446.165 143.648L445.986 137.735ZM455.386 137.45L455.565 143.363L459.32 143.249L460.814 139.802L455.386 137.45ZM459.089 128.904L464.517 131.256L464.531 131.226L464.544 131.195L459.089 128.904ZM461.465 123.27L456.019 120.961L456.016 120.968L461.465 123.27ZM461.469 123.262L466.916 125.571L466.918 125.564L461.469 123.262ZM466.875 110.388L461.409 108.126V108.126L466.875 110.388ZM479.694 80.0033L474.247 77.6953L474.247 77.6953L479.694 80.0033ZM494.602 44.5859L500.068 46.8479L500.069 46.8463L494.602 44.5859ZM501.628 30.8178L496.457 33.6907L496.487 33.745L496.518 33.7986L501.628 30.8178ZM540.939 122.732L546.395 120.446L546.39 120.436L546.386 120.425L540.939 122.732ZM547.3 136.69L551.944 133.024L551.895 132.963L551.845 132.903L547.3 136.69ZM560.784 118.839L566.203 116.468V116.468L560.784 118.839ZM547.809 89.0813L542.385 91.4418L542.385 91.4436L547.809 89.0813ZM547.754 88.9538L553.178 86.5933L553.177 86.5915L547.754 88.9538ZM543.028 78.1043L537.597 80.4509L537.601 80.4591L537.604 80.4673L543.028 78.1043ZM522.546 30.8321L527.969 28.4682L527.969 28.4681L522.546 30.8321ZM522.043 29.6784L527.466 27.3143L527.454 27.2863L527.441 27.2584L522.043 29.6784ZM514.732 12.7768L520.224 10.5797L520.196 10.5081L520.165 10.4373L514.732 12.7768ZM511.788 5.94017L517.222 3.60074L515.682 0.0243816H511.788V5.94017ZM490.993 5.94017V0.0243816H487.093L485.556 3.60984L490.993 5.94017ZM147.285 61.2988L152.576 63.9444L152.804 63.4877L152.951 62.9987L147.285 61.2988ZM147 99.9446L141.084 99.9719L141.084 99.9807L141.084 99.9895L147 99.9446ZM237.965 60.0644H243.88V54.1487H237.965V60.0644ZM237.965 79.055V84.9708H243.88V79.055H237.965ZM165.801 79.055V73.1392H159.885V79.055H165.801ZM165.801 118.935H159.885V124.851H165.801V118.935ZM244.706 118.935L250.619 119.118L250.808 113.019H244.706V118.935ZM244.421 128.146L238.509 127.963L238.508 127.965L244.421 128.146ZM244.137 137.451V143.367H249.874L250.05 137.632L244.137 137.451ZM147.285 137.451L141.369 137.496L141.414 143.367H147.285V137.451ZM274.964 71.9321V137.924H286.795V71.9321H274.964ZM274.964 5.93994V71.9321H286.795V5.93994H274.964ZM292.653 0.0241523H280.879V11.8557H292.653V0.0241523ZM304.333 0.0241523H292.653V11.8557H304.333V0.0241523ZM322.233 19.6307L309.034 2.34927L299.631 9.53061L312.83 26.812L322.233 19.6307ZM339.267 41.8627C334.251 35.302 327.575 26.5683 322.218 19.6122L312.844 26.8305C318.185 33.7671 324.848 42.4833 329.867 49.0484L339.267 41.8627ZM339.275 41.8733L339.267 41.8626L329.867 49.0485L329.875 49.0592L339.275 41.8733ZM343.972 48.0159C342.727 46.3891 341.113 44.2779 339.275 41.8734L329.875 49.0591C331.712 51.4622 333.329 53.5775 334.578 55.2085L343.972 48.0159ZM360.394 69.4317C353.841 60.8453 347.346 52.3339 343.937 47.9702L334.613 55.2542C337.97 59.5504 344.411 67.9903 350.988 76.6094L360.394 69.4317ZM368.187 79.6379C365.706 76.3923 363.043 72.9031 360.394 69.4317L350.988 76.6094C353.636 80.0798 356.303 83.5739 358.789 86.825L368.187 79.6379ZM383.848 100.045L368.181 79.6298L358.795 86.8331L374.462 107.248L383.848 100.045ZM373.715 54.9727L373.24 103.589L385.071 103.704L385.546 55.0883L373.715 54.9727ZM374.189 6.35694L373.715 54.9727L385.546 55.0883L386.02 6.47247L374.189 6.35694ZM389.6 0.498916H380.105V12.3305H389.6V0.498916ZM399.095 0.498916H389.6V12.3305H399.095V0.498916ZM405.011 71.9321V6.41471H393.18V71.9321H405.011ZM405.011 137.449V71.9321H393.18V137.449H405.011ZM390.262 143.647L399.282 143.362L398.909 131.537L389.888 131.822L390.262 143.647ZM376.728 142.182C377.819 142.909 378.949 143.13 379.138 143.172C379.588 143.27 380.042 143.335 380.428 143.381C381.217 143.476 382.156 143.54 383.136 143.585C385.12 143.675 387.625 143.698 390.189 143.649L389.961 131.82C387.587 131.865 385.345 131.841 383.673 131.765C382.826 131.727 382.209 131.679 381.829 131.633C381.631 131.61 381.596 131.598 381.669 131.614C381.706 131.622 381.849 131.654 382.054 131.723C382.2 131.773 382.705 131.946 383.291 132.337L376.728 142.182ZM340.728 95.4392C349.99 107.693 358.516 118.928 364.788 127.16C367.924 131.275 370.499 134.644 372.322 137.017C373.233 138.202 373.961 139.146 374.481 139.813C374.739 140.144 374.955 140.42 375.12 140.627C375.141 140.653 375.497 141.113 375.827 141.443L384.193 133.076C384.464 133.347 384.642 133.591 384.374 133.255C384.25 133.098 384.064 132.863 383.815 132.543C383.32 131.907 382.609 130.987 381.704 129.808C379.895 127.454 377.331 124.099 374.2 119.989C367.938 111.771 359.421 100.549 350.167 88.3052L340.728 95.4392ZM301.401 43.4123C304.572 47.4225 322.162 70.7796 340.721 95.4304L350.173 88.3139C331.701 63.7792 313.968 40.2297 310.682 36.0739L301.401 43.4123ZM295.634 35.8199L301.331 43.3212L310.753 36.1651L305.056 28.6638L295.634 35.8199ZM305.975 85.0675L306.26 32.2738L294.429 32.2099L294.144 85.0036L305.975 85.0675ZM305.786 137.945L305.975 85.0568L294.144 85.0143L293.954 137.903L305.786 137.945ZM290.375 143.84H299.87V132.008H290.375V143.84ZM280.879 143.84H290.375V132.008H280.879V143.84ZM161.558 18.272C159.714 17.7716 157.413 16.2419 155.509 13.9415C153.571 11.6012 152.745 9.32396 152.725 7.94087L140.895 8.11745C140.969 13.0962 143.419 17.8929 146.395 21.4872C149.405 25.1213 153.656 28.3868 158.458 29.6904L161.558 18.272ZM203.854 18.8251C191.103 18.8725 180.776 18.8249 173.357 18.6954C169.644 18.6306 166.695 18.5458 164.551 18.4444C162.139 18.3304 161.322 18.2128 161.389 18.2288L158.628 29.7337C159.881 30.0345 161.949 30.1662 163.993 30.2628C166.306 30.3721 169.387 30.4595 173.151 30.5252C180.688 30.6568 191.108 30.7041 203.898 30.6566L203.854 18.8251ZM244.094 18.5403L203.834 18.8252L203.918 30.6565L244.178 30.3716L244.094 18.5403ZM238.221 15.4355V24.456H250.052V15.4355H238.221ZM238.221 6.41496V15.4355H250.052V6.41496H238.221ZM195.486 12.0458L244.102 12.3306L244.171 0.499273L195.555 0.214415L195.486 12.0458ZM146.787 11.8559L195.497 12.0458L195.544 0.214358L146.833 0.0244527L146.787 11.8559ZM152.726 8.02916V5.9402H140.894V8.02916H152.726ZM13.9098 24.9319V15.4367H2.07822V24.9319H13.9098ZM43.6013 19.0161H7.99401V30.8477H43.6013V19.0161ZM85.1244 25.5966C85.1244 22.795 83.2896 21.2569 82.7644 20.8599C82.0972 20.3555 81.4783 20.1124 81.2498 20.0262C80.7245 19.828 80.2701 19.7414 80.1146 19.7122C79.7129 19.6369 79.3085 19.5945 79.0259 19.5684C78.4033 19.5108 77.5853 19.4636 76.6572 19.4225C74.7703 19.339 72.093 19.2667 68.8488 19.2071C62.3447 19.0875 53.4047 19.0161 43.6013 19.0161V30.8477C53.3582 30.8477 62.2217 30.9188 68.6313 31.0366C71.8438 31.0957 74.4008 31.1658 76.134 31.2425C77.0159 31.2816 77.6045 31.319 77.9358 31.3496C78.1302 31.3676 78.0897 31.3703 77.9326 31.3409C77.8994 31.3346 77.5374 31.2712 77.0741 31.0964C76.8765 31.0219 76.2809 30.7905 75.6293 30.2979C75.1197 29.9127 73.2928 28.3864 73.2928 25.5966H85.1244ZM15.8282 120.153C25.5326 107.452 42.5679 84.8089 57.1687 65.2938C64.4708 55.5338 71.1708 46.5471 76.0475 39.9676C78.4845 36.6796 80.473 33.9836 81.8555 32.0901C82.5444 31.1467 83.096 30.3844 83.4811 29.8418C83.6695 29.5762 83.8421 29.3296 83.9774 29.1284C84.039 29.0367 84.1331 28.8952 84.2267 28.7413C84.2672 28.6748 84.3629 28.516 84.4665 28.3134C84.5151 28.2185 84.6176 28.0132 84.722 27.7439C84.7444 27.6861 85.1244 26.7895 85.1244 25.5966H73.2928C73.2928 24.4074 73.6712 23.5166 73.6907 23.4664C73.7922 23.2047 73.8902 23.009 73.9328 22.9257C74.0247 22.7462 74.1027 22.6182 74.1197 22.5904C74.1664 22.5136 74.1902 22.4801 74.1591 22.5263C74.1089 22.601 74.0056 22.7502 73.8325 22.994C73.4947 23.4701 72.9808 24.1807 72.2999 25.1133C70.9428 26.9719 68.9745 29.6408 66.5422 32.9223C61.6803 39.4819 54.9919 48.4531 47.6951 58.2059C33.0979 77.7164 16.0926 100.319 6.4267 112.97L15.8282 120.153ZM10.6587 126.759L15.7862 120.207L6.46873 112.915L1.34129 119.467L10.6587 126.759ZM12.196 130.096L11.9112 122.88L0.0888143 123.346L0.373672 130.563L12.196 130.096ZM12.4808 137.214L12.1959 130.093L0.373796 130.566L0.658654 137.687L12.4808 137.214ZM58.319 131.535H6.56972V143.367H58.319V131.535ZM110.068 131.535H58.319V143.367H110.068V131.535ZM104.44 128.058L104.155 137.268L115.981 137.634L116.266 128.423L104.44 128.058ZM104.725 118.754L104.44 128.06L116.266 128.422L116.551 119.116L104.725 118.754ZM72.058 124.661L110.609 124.851L110.667 113.019L72.1163 112.83L72.058 124.661ZM33.3977 124.376L72.0435 124.661L72.1307 112.83L33.4849 112.545L33.3977 124.376ZM65.366 66.1928L28.7142 114.904L38.1684 122.017L74.8202 73.3065L65.366 66.1928ZM102.018 17.482L65.366 66.1928L74.8202 73.3065L111.472 24.5957L102.018 17.482ZM100.829 13.5376V21.0389H112.661V13.5376H100.829ZM100.829 5.94139V13.5376H112.661V5.94139H100.829ZM57.3694 11.8572H106.745V0.025598H57.3694V11.8572ZM7.99401 11.8572H57.3694V0.025598H7.99401V11.8572ZM13.9098 15.4367V5.94139H2.07822V15.4367H13.9098ZM487.959 27.7853C490.697 21.5542 493.767 14.55 494.745 12.2035L483.824 7.65289C482.902 9.86415 479.896 16.723 477.127 23.0257L487.959 27.7853ZM470.917 67.2038C477.734 51.3948 484.302 36.1623 487.964 27.7721L477.121 23.0388C473.445 31.4598 466.863 46.7241 460.053 62.519L470.917 67.2038ZM462.337 87.0958C465.105 80.6834 468.033 73.8932 470.917 67.2037L460.053 62.5191C457.168 69.209 454.241 75.9967 451.474 82.4062L462.337 87.0958ZM448.287 119.656C452.937 108.838 459.296 94.126 462.335 87.099L451.475 82.4029C448.437 89.4289 442.073 104.152 437.417 114.984L448.287 119.656ZM437.317 131.932C439.155 132.545 440.203 133.886 440.688 134.934C441.111 135.846 441.166 136.616 441.179 136.889C441.205 137.452 441.11 137.741 441.169 137.47C441.26 137.053 441.527 136.143 442.108 134.551C443.238 131.45 445.239 126.61 448.27 119.695L437.434 114.945C434.389 121.892 432.259 127.022 430.992 130.498C430.374 132.193 429.876 133.722 429.607 134.958C429.487 135.513 429.314 136.432 429.36 137.436C429.383 137.929 429.473 138.872 429.955 139.912C430.5 141.086 431.63 142.509 433.575 143.157L437.317 131.932ZM445.876 131.82C443.333 131.867 440.935 131.889 439.116 131.867C438.198 131.855 437.495 131.833 437.02 131.804C436.907 131.797 436.819 131.79 436.753 131.784C436.685 131.778 436.657 131.774 436.66 131.774C436.663 131.775 436.68 131.777 436.711 131.782C436.74 131.787 436.793 131.796 436.863 131.812C436.947 131.83 437.311 131.908 437.776 132.107L433.116 142.982C434.021 143.37 434.899 143.476 435.099 143.503C435.495 143.555 435.908 143.589 436.284 143.612C437.047 143.66 437.976 143.685 438.969 143.697C440.971 143.722 443.511 143.697 446.095 143.649L445.876 131.82ZM455.207 131.537L445.807 131.822L446.165 143.648L455.565 143.363L455.207 131.537ZM453.661 126.552L449.958 135.098L460.814 139.802L464.517 131.256L453.661 126.552ZM456.016 120.968C455.125 123.077 454.297 125.037 453.635 126.613L464.544 131.195C465.2 129.632 466.022 127.685 466.915 125.572L456.016 120.968ZM456.022 120.953L456.019 120.961L466.912 125.579L466.916 125.571L456.022 120.953ZM461.409 108.126C459.895 111.786 457.827 116.68 456.019 120.96L466.918 125.564C468.72 121.298 470.807 116.359 472.342 112.65L461.409 108.126ZM474.247 77.6953C469.506 88.8841 463.7 102.589 461.409 108.126L472.342 112.65C474.608 107.173 480.387 93.5314 485.141 82.3114L474.247 77.6953ZM489.135 42.324C485.728 50.5574 478.997 66.4851 474.247 77.6953L485.141 82.3114C489.886 71.1127 496.638 55.1363 500.068 46.8479L489.135 42.324ZM506.799 27.9448C506.221 26.904 504.965 25.4161 502.765 24.9408C500.757 24.5068 499.185 25.1973 498.48 25.5903C497.193 26.3066 496.413 27.3503 496.184 27.6541C495.493 28.569 494.818 29.7805 494.204 30.9788C492.904 33.5132 491.193 37.3481 489.135 42.3256L500.069 46.8463C502.093 41.9487 503.658 38.4722 504.732 36.3777C504.995 35.8639 505.211 35.4695 505.38 35.1795C505.561 34.8701 505.64 34.7652 505.624 34.7857C505.615 34.7975 505.53 34.9113 505.371 35.0728C505.246 35.2002 504.863 35.5782 504.235 35.9277C503.65 36.2533 502.184 36.9199 500.266 36.5054C498.157 36.0496 496.976 34.6248 496.457 33.6907L506.799 27.9448ZM546.386 120.425C539.024 103.042 529.36 80.3417 521.453 61.8447C517.5 52.5965 513.984 44.3947 511.414 38.4315C510.129 35.4512 509.078 33.0229 508.325 31.3003C507.95 30.4409 507.643 29.7452 507.417 29.2402C507.291 28.9576 506.986 28.2621 506.738 27.837L496.518 33.7986C496.353 33.516 496.313 33.3916 496.617 34.0718C496.822 34.5296 497.112 35.1882 497.483 36.0376C498.224 37.7327 499.266 40.1395 500.548 43.1144C503.112 49.0619 506.622 57.2513 510.574 66.4952C518.477 84.9823 528.135 107.67 535.491 125.039L546.386 120.425ZM551.845 132.903C552.225 133.359 552.395 133.732 552.209 133.389C552.129 133.243 552.002 132.996 551.823 132.635C551.47 131.922 550.993 130.912 550.424 129.669C549.289 127.192 547.844 123.904 546.395 120.446L535.482 125.018C536.977 128.586 538.475 131.993 539.667 134.595C540.261 135.893 540.792 137.019 541.217 137.878C541.427 138.304 541.63 138.703 541.814 139.04C541.891 139.183 542.257 139.879 542.756 140.477L551.845 132.903ZM562.084 136.69C562.084 133.755 564.143 132.308 564.507 132.066C564.822 131.857 565.077 131.74 565.199 131.688C565.332 131.631 565.418 131.604 565.433 131.599C565.456 131.592 565.371 131.619 565.138 131.662C564.917 131.703 564.624 131.747 564.256 131.792C562.741 131.975 560.538 132.086 558.17 132.092C555.811 132.097 553.499 131.998 551.775 131.81C550.893 131.715 550.326 131.613 550.041 131.541C549.892 131.503 549.971 131.511 550.18 131.605C550.253 131.637 551.143 132.01 551.944 133.024L542.657 140.356C543.636 141.596 544.843 142.179 545.355 142.408C546.003 142.697 546.642 142.886 547.157 143.016C548.198 143.277 549.371 143.45 550.497 143.573C552.787 143.822 555.56 143.93 558.198 143.923C560.828 143.917 563.533 143.797 565.676 143.538C566.7 143.414 567.87 143.228 568.905 142.91C569.381 142.764 570.219 142.476 571.06 141.917C571.707 141.487 573.916 139.839 573.916 136.69H562.084ZM555.364 121.21C557.342 125.731 559.123 129.951 560.403 133.116C561.046 134.705 561.546 135.988 561.878 136.896C562.047 137.357 562.151 137.663 562.205 137.837C562.234 137.928 562.229 137.921 562.211 137.848C562.202 137.81 562.178 137.709 562.154 137.564C562.136 137.453 562.084 137.127 562.084 136.69H573.916C573.916 135.882 573.746 135.213 573.715 135.081C573.648 134.803 573.57 134.538 573.502 134.321C573.364 133.878 573.185 133.365 572.989 132.829C572.591 131.742 572.035 130.32 571.372 128.68C570.04 125.388 568.214 121.063 566.203 116.468L555.364 121.21ZM542.385 91.4436C547.223 102.549 552.396 114.426 555.364 121.21L566.203 116.468C563.24 109.695 558.072 97.8292 553.233 86.7189L542.385 91.4436ZM542.329 91.3143L542.385 91.4418L553.234 86.7208L553.178 86.5933L542.329 91.3143ZM537.604 80.4673C539.073 83.8372 540.681 87.5307 542.33 91.3161L553.177 86.5915C551.529 82.8063 549.92 79.1121 548.451 75.7413L537.604 80.4673ZM517.123 33.1961C521.57 43.3981 523.311 47.3911 537.597 80.4509L548.458 75.7576C534.17 42.6939 532.424 38.6874 527.969 28.4682L517.123 33.1961ZM516.62 32.0425L517.123 33.1962L527.969 28.4681L527.466 27.3143L516.62 32.0425ZM509.239 14.9739C510.808 18.8966 514.177 26.5923 516.645 32.0983L527.441 27.2584C524.972 21.7499 521.694 14.2531 520.224 10.5797L509.239 14.9739ZM506.354 8.2796L509.298 15.1162L520.165 10.4373L517.222 3.60074L506.354 8.2796ZM501.438 11.856H511.788V0.0243816H501.438V11.856ZM490.993 11.856H501.438V0.0243816H490.993V11.856ZM494.722 12.2585L496.431 8.2705L485.556 3.60984L483.847 7.59786L494.722 12.2585ZM141.994 58.6533C141.708 59.2247 141.58 59.7158 141.539 59.877C141.481 60.1034 141.446 60.2944 141.426 60.414C141.385 60.6546 141.361 60.8715 141.347 61.0156C141.317 61.3172 141.296 61.6518 141.279 61.9716C141.245 62.629 141.217 63.505 141.193 64.5424C141.144 66.6312 141.108 69.5506 141.084 73.0685C141.037 80.1133 141.037 89.6564 141.084 99.9719L152.916 99.9173C152.868 89.6281 152.868 80.1331 152.916 73.1486C152.939 69.6519 152.975 66.8088 153.021 64.8177C153.044 63.8151 153.069 63.0717 153.095 62.584C153.101 62.4657 153.107 62.3719 153.112 62.3C153.114 62.2644 153.116 62.2369 153.118 62.2165C153.119 62.2064 153.119 62.1988 153.12 62.1933C153.12 62.1906 153.12 62.1886 153.12 62.1872C153.12 62.1858 153.12 62.1851 153.12 62.1851C153.12 62.1851 153.12 62.1859 153.12 62.1875C153.12 62.1891 153.12 62.1916 153.119 62.1949C153.119 62.2013 153.117 62.2122 153.116 62.2269C153.112 62.2527 153.105 62.3099 153.091 62.3887C153.08 62.4579 153.053 62.6066 153.004 62.7987C152.972 62.9258 152.853 63.3908 152.576 63.9444L141.994 58.6533ZM192.862 54.1487C175.212 54.1487 163.81 54.2195 156.773 54.412C153.282 54.5075 150.711 54.6362 148.942 54.8219C148.094 54.9109 147.174 55.0373 146.348 55.2583C145.956 55.3632 145.285 55.5657 144.575 55.9615C144.032 56.2641 142.305 57.3099 141.619 59.599L152.951 62.9987C152.3 65.1691 150.684 66.1014 150.336 66.2955C149.821 66.5828 149.428 66.6819 149.405 66.6881C149.316 66.7117 149.498 66.6601 150.177 66.5888C151.461 66.4541 153.643 66.3336 157.096 66.2391C163.946 66.0518 175.19 65.9802 192.862 65.9802V54.1487ZM237.965 54.1487H192.862V65.9802H237.965V54.1487ZM243.88 69.5597V60.0644H232.049V69.5597H243.88ZM243.88 79.055V69.5597H232.049V79.055H243.88ZM201.883 84.9708H237.965V73.1392H201.883V84.9708ZM165.801 84.9708H201.883V73.1392H165.801V84.9708ZM171.716 98.9951V79.055H159.885V98.9951H171.716ZM171.716 118.935V98.9951H159.885V118.935H171.716ZM205.206 113.019H165.801V124.851H205.206V113.019ZM244.706 113.019H205.206V124.851H244.706V113.019ZM250.334 128.328L250.619 119.118L238.793 118.752L238.509 127.963L250.334 128.328ZM250.05 137.632L250.335 128.327L238.508 127.965L238.224 137.27L250.05 137.632ZM195.711 143.367H244.137V131.535H195.711V143.367ZM147.285 143.367H195.711V131.535H147.285V143.367ZM141.084 99.9895L141.369 137.496L153.2 137.406L152.916 99.8997L141.084 99.9895Z" fill="url(#paint1_linear_388_11982)" mask="url(#path-1-outside-1_388_11982)"/>
<defs>
<linearGradient id="paint0_linear_388_11982" x1="6.00002" y1="-144.43" x2="406.4" y2="244.633" gradientUnits="userSpaceOnUse">
<stop stop-color="#CAC85D"/>
<stop offset="1" stop-color="#FF0FBC"/>
</linearGradient>
<linearGradient id="paint1_linear_388_11982" x1="6.00002" y1="-144.43" x2="406.4" y2="244.633" gradientUnits="userSpaceOnUse">
<stop stop-color="#CAC85D"/>
<stop offset="1" stop-color="#FF0FBC"/>
</linearGradient>
</defs>
</svg>
